C:\GBW_MyPrograms\KinderuniversiteitApp\Resultaten\Ellis_v10102025\Reus\Reus_v3.mot
version=1
nRows=8
nColumns=29
inDegrees=yes
endheader
                time	         pelvis_tilt	           pelvis_tx	           pelvis_ty	       hip_flexion_l	       hip_flexion_r	        knee_angle_l	        knee_angle_r	       ankle_angle_l	       ankle_angle_r	    lumbar_extension	hamstrings_r/activation	bifemsh_r/activation	glut_max_r/activation	iliopsoas_r/activation	rect_fem_r/activation	  vasti_r/activation	gastroc_r/activation	 soleus_r/activation	tib_ant_r/activation	hamstrings_l/activation	bifemsh_l/activation	glut_max_l/activation	iliopsoas_l/activation	rect_fem_l/activation	  vasti_l/activation	gastroc_l/activation	 soleus_l/activation	tib_ant_l/activation	
          0.10000000	         -6.31343160	          0.27006185	          0.80117205	         26.79052397	         25.46494336	        -43.05686882	        -41.47920498	         11.69422079	         16.90018800	         -0.67319099	          0.28881900	          0.53558826	          0.71105035	          0.49142044	          0.50300798	          0.72136789	          0.38252432	          0.73898513	          0.44938881	          0.26598805	          0.41862882	          0.41470032	          0.30117493	          0.36085652	          0.48063957	          0.42726958	          0.42028093	          0.58325060	
          0.10200000	         -6.34483651	          0.28506749	          0.80224730	         26.53253305	         25.23081120	        -43.24355512	        -41.25070135	         11.53439111	         16.99133699	         -0.66437857	          0.28078137	          0.51561524	          0.73716218	          0.47149361	          0.48751955	          0.74860886	          0.36995048	          0.76157375	          0.43261305	          0.25649338	          0.40368414	          0.44915531	          0.28866592	          0.34968499	          0.46436566	          0.41127603	          0.40315360	          0.56915220	
          0.10400000	         -6.36807401	          0.29874505	          0.80338989	         26.26627825	         25.13620330	        -43.44515710	        -40.94538193	         11.43465161	         17.06708432	         -0.65938472	          0.29936051	          0.49699345	          0.76084982	          0.45233874	          0.47122033	          0.77257165	          0.42786521	          0.78222554	          0.41543070	          0.24712732	          0.38961343	          0.43568319	          0.27698636	          0.33878692	          0.44636810	          0.39660735	          0.38655618	          0.55366840	
          0.10600000	         -6.38689702	          0.31116530	          0.80447068	         26.06898983	         24.97208966	        -43.60810090	        -40.74140962	         11.39959038	         17.13146348	         -0.65772844	          0.29456922	          0.47908314	          0.78137305	          0.43385382	          0.45558154	          0.79380809	          0.47412656	          0.80038418	          0.39927092	          0.23688331	          0.37757557	          0.41918571	          0.26999155	          0.33010638	          0.42841444	          0.38329753	          0.37055047	          0.58850888	
          0.10800000	         -6.40489123	          0.32239107	          0.80559288	         25.73579971	         24.83418645	        -43.91248716	        -40.65894391	         11.42707882	         17.17240580	         -0.65888218	          0.36584351	          0.46173099	          0.80119964	          0.41583503	          0.43946406	          0.81257254	          0.48661627	          0.81594790	          0.38381028	          0.22807983	          0.37398664	          0.40285670	          0.34726058	          0.32219405	          0.41082022	          0.37617761	          0.35501822	          0.62417750	
          0.11000000	         -6.41761432	          0.33246774	          0.80660555	         25.51058554	         24.62384300	        -44.04198490	        -40.66687784	         11.34405374	         17.20444565	         -0.66232866	          0.42623291	          0.44487514	          0.81821929	          0.39849736	          0.42428683	          0.82913925	          0.48181588	          0.82937669	          0.36886733	          0.21702744	          0.43492026	          0.38630802	          0.41885327	          0.39241572	          0.39366745	          0.42486278	          0.34044326	          0.65335578	
          0.11200000	         -6.42850051	          0.34143221	          0.80756078	         25.14228413	         24.44498624	        -44.30687039	        -40.76914622	         11.26227516	         17.23246461	         -0.66879757	          0.44127641	          0.42858532	          0.83103614	          0.38195042	          0.41062840	          0.84367615	          0.47099298	          0.84081143	          0.35437400	          0.20550661	          0.49316825	          0.36993076	          0.48207587	          0.45721984	          0.37695421	          0.47016670	          0.32654896	          0.68409000	
          0.11400000	         -6.42744626	          0.34930585	          0.80828479	         24.96007626	         24.37676165	        -44.30728511	        -40.94975887	         11.21332477	         17.24731634	         -0.67851658	          0.45567384	          0.41293129	          0.82158751	          0.36626156	          0.39947217	          0.85639038	          0.45881225	          0.85011155	          0.34028961	          0.19408871	          0.54555552	          0.35379905	          0.53777573	          0.51506148	          0.36073873	          0.51867054	          0.31402510	          0.68534302	
